<?xml version="1.0" encoding="UTF-8"?>
<!DOCTYPE svg PUBLIC "-//W3C//DTD SVG 1.1//EN" "http://www.w3.org/Graphics/SVG/1.1/DTD/svg11.dtd">
<!-- Creator: CorelDRAW 2020 (64-Bit) -->
<svg xmlns="http://www.w3.org/2000/svg" xml:space="preserve" width="160px" height="160px" version="1.1" style="shape-rendering:geometricPrecision; text-rendering:geometricPrecision; image-rendering:optimizeQuality; fill-rule:evenodd; clip-rule:evenodd"
viewBox="0 0 160 160"
 xmlns:xlink="http://www.w3.org/1999/xlink"
 xmlns:xodm="http://www.corel.com/coreldraw/odm/2003">
 <defs>
  <style type="text/css">
   <![CDATA[
    .fil1 {fill:#FEFEFE;fill-rule:nonzero}
    .fil0 {fill:#1877F2;fill-rule:nonzero}
   ]]>
  </style>
 </defs>
 <g id="Capa_x0020_1">
  <metadata id="CorelCorpID_0Corel-Layer"/>
  <path class="fil0" d="M160 80c0,44 -36,80 -80,80 -44,0 -80,-36 -80,-80 0,-40 29,-73 67,-79l0 56 -20 0 0 23 20 0 0 17c0,21 12,32 31,32 8,0 18,-2 18,-2l0 -20 -11 0c-9,0 -13,-6 -13,-12l0 -15 23 0 -4 -23 -19 0 0 -56c39,6 68,39 68,79z"/>
  <path class="fil1" d="M111 57l4 23 -23 0 0 15c0,6 4,12 13,12l11 0 0 20c0,0 -10,2 -18,2 -19,0 -31,-11 -31,-32l0 -17 -20 0 0 -23 20 0 0 -56c4,-1 9,-1 13,-1 4,0 8,0 12,1l0 56 19 0z"/>
 </g>
</svg>
