<?xml version="1.0" encoding="UTF-8"?>
<!DOCTYPE svg PUBLIC "-//W3C//DTD SVG 1.1//EN" "http://www.w3.org/Graphics/SVG/1.1/DTD/svg11.dtd">
<!-- Creator: CorelDRAW 2020 (64-Bit) -->
<svg xmlns="http://www.w3.org/2000/svg" xml:space="preserve" width="160px" height="160px" version="1.1" style="shape-rendering:geometricPrecision; text-rendering:geometricPrecision; image-rendering:optimizeQuality; fill-rule:evenodd; clip-rule:evenodd"
viewBox="0 0 160 160"
 xmlns:xlink="http://www.w3.org/1999/xlink"
 xmlns:xodm="http://www.corel.com/coreldraw/odm/2003">
 <defs>
  <style type="text/css">
   <![CDATA[
    .str1 {stroke:#2F2F2F;stroke-width:0.9;stroke-miterlimit:22.9256}
    .str0 {stroke:white;stroke-width:0.9;stroke-miterlimit:22.9256}
    .fil1 {fill:#2F2F2F}
    .fil0 {fill:white}
   ]]>
  </style>
 </defs>
 <g id="Capa_x0020_1">
  <metadata id="CorelCorpID_0Corel-Layer"/>
  <circle class="fil0 str0" cx="80" cy="80" r="80"/>
  <path class="fil1 str1" d="M121.49 126.95c-5,0 -7,-1 -11,-2 -6,-3 -6,-4 -10,-6 -1,0 -1,0 -2,0 -6,2 -12,2 -17,2 -3,1 -4,0 -7,0 -5,0 -9,-1 -14,-2 -2,-1 -5,3 -10,5 -4,2 -7,3 -12,3 -3,0 -4,-13 -3,-18 2,-4 2,-2 -1,-6 -7,-10 -7,-24 -3,-36 1,-3 3,-6 5,-9 5,-6 12,-10 21,-11 2,-1 5,-2 8,-2 -1,-1 -2,-2 -3,-3 -2,-4 -1,-7 -3,-8 -3,-2 -6,-1 -10,-2 -9,0 -12,9 -15,13 -3,2 -9,6 -13,3 0,-1 1,-3 3,-3 4,-3 7,-8 8,-12 5,-10 13,-10 22,-10 3,0 4,0 6,0l0 -14c0,-1.99 -1.99,-4.98 -3.98,-5 7.42,-2.28 15.31,-3.5 23.48,-3.5 8.17,0 16.05,1.22 23.47,3.5 -1.98,0.01 -2.98,1.01 -3.97,3 -1,5 1,23 -1,30 -1,5 -2,5 -4,8 4,0 11,2 15,4 9,3 16,9 19,18 8,26 -6,38 -6,39 0,1 1,2 1,3 0,2 1,3 1,5 0,9 -2,8 -3,13z"/>
 </g>
</svg>
