<?xml version="1.0" encoding="UTF-8"?>
<!DOCTYPE svg PUBLIC "-//W3C//DTD SVG 1.1//EN" "http://www.w3.org/Graphics/SVG/1.1/DTD/svg11.dtd">
<!-- Creator: CorelDRAW 2020 (64-Bit) -->
<svg xmlns="http://www.w3.org/2000/svg" xml:space="preserve" width="250px" height="250px" version="1.1" style="shape-rendering:geometricPrecision; text-rendering:geometricPrecision; image-rendering:optimizeQuality; fill-rule:evenodd; clip-rule:evenodd"
viewBox="0 0 250 250"
 xmlns:xlink="http://www.w3.org/1999/xlink"
 xmlns:xodm="http://www.corel.com/coreldraw/odm/2003">
 <defs>
  <style type="text/css">
   <![CDATA[
    .fil0 {fill:white;fill-rule:nonzero}
   ]]>
  </style>
 </defs>
 <g id="Capa_x0020_1">
  <metadata id="CorelCorpID_0Corel-Layer"/>
  <g>
   <path class="fil0" d="M210.18 196.93c3.91,3.9 3.91,10.24 0,14.14 -3.9,3.91 -10.24,3.91 -14.14,0l14.14 -14.14zm-65.81 -65.82l65.81 65.82 -14.14 14.14 -65.81 -65.81 14.14 -14.15zm-91.85 15.14l14.15 -14.15 0 0 1.7 1.62 1.75 1.51 1.82 1.4 1.86 1.3 1.92 1.19 1.96 1.09 2 0.99 2.04 0.88 2.08 0.78 2.1 0.68 2.13 0.57 2.16 0.47 2.17 0.36 2.18 0.26 2.19 0.16 2.2 0.05 2.2 -0.05 2.2 -0.15 2.18 -0.26 2.17 -0.37 2.16 -0.47 2.13 -0.57 2.1 -0.67 2.08 -0.78 2.04 -0.89 2 -0.98 1.96 -1.09 1.92 -1.2 1.87 -1.3 1.81 -1.4 1.76 -1.51 1.7 -1.62 14.15 14.15 -2.44 2.31 -2.53 2.18 -2.62 2.02 -2.7 1.87 -2.76 1.73 -2.84 1.57 -2.89 1.43 -2.94 1.27 -2.99 1.12 -3.03 0.98 -3.06 0.82 -3.1 0.67 -3.11 0.52 -3.13 0.38 -3.14 0.22 -3.15 0.08 -3.15 -0.08 -3.14 -0.23 -3.13 -0.37 -3.11 -0.52 -3.1 -0.68 -3.06 -0.82 -3.03 -0.97 -2.98 -1.13 -2.95 -1.27 -2.89 -1.43 -2.83 -1.57 -2.76 -1.72 -2.69 -1.88 -2.62 -2.02 -2.53 -2.17 -2.44 -2.31 0 0zm0 -92.84l14.15 14.15 0 0 -1.62 1.7 -1.51 1.76 -1.4 1.81 -1.3 1.87 -1.2 1.92 -1.09 1.96 -0.98 2 -0.89 2.04 -0.77 2.08 -0.68 2.1 -0.57 2.14 -0.47 2.15 -0.36 2.17 -0.26 2.19 -0.16 2.19 -0.05 2.2 0.05 2.2 0.16 2.19 0.26 2.18 0.36 2.17 0.47 2.16 0.58 2.13 0.67 2.1 0.78 2.08 0.89 2.04 0.98 2 1.09 1.96 1.2 1.92 1.29 1.86 1.4 1.82 1.51 1.75 1.62 1.7 -14.15 14.15 -2.31 -2.44 -2.17 -2.53 -2.02 -2.61 -1.87 -2.7 -1.73 -2.76 -1.57 -2.83 -1.43 -2.89 -1.27 -2.94 -1.12 -2.99 -0.98 -3.03 -0.82 -3.06 -0.67 -3.09 -0.53 -3.12 -0.37 -3.13 -0.23 -3.14 -0.07 -3.15 0.07 -3.15 0.22 -3.14 0.38 -3.13 0.52 -3.11 0.67 -3.09 0.82 -3.07 0.98 -3.03 1.12 -2.99 1.27 -2.94 1.43 -2.89 1.57 -2.84 1.73 -2.76 1.87 -2.7 2.03 -2.62 2.17 -2.53 2.31 -2.44 0 0zm92.84 0l-14.15 14.15 0 0 -1.69 -1.62 -1.76 -1.51 -1.82 -1.4 -1.86 -1.3 -1.92 -1.19 -1.96 -1.09 -2 -0.99 -2.04 -0.88 -2.07 -0.78 -2.11 -0.68 -2.13 -0.57 -2.15 -0.47 -2.17 -0.36 -2.19 -0.27 -2.19 -0.15 -2.2 -0.05 -2.2 0.05 -2.19 0.15 -2.19 0.26 -2.17 0.37 -2.15 0.47 -2.13 0.57 -2.11 0.67 -2.08 0.78 -2.04 0.89 -2 0.98 -1.96 1.09 -1.92 1.2 -1.87 1.3 -1.81 1.4 -1.76 1.51 -1.7 1.62 -14.15 -14.15 2.44 -2.31 2.54 -2.18 2.61 -2.02 2.7 -1.88 2.77 -1.72 2.83 -1.57 2.89 -1.43 2.94 -1.27 2.99 -1.12 3.03 -0.98 3.07 -0.82 3.09 -0.67 3.11 -0.53 3.13 -0.37 3.15 -0.22 3.14 -0.08 3.15 0.08 3.14 0.22 3.13 0.38 3.12 0.52 3.09 0.68 3.06 0.82 3.03 0.97 2.99 1.13 2.94 1.27 2.89 1.43 2.83 1.57 2.76 1.72 2.7 1.88 2.61 2.02 2.53 2.17 2.44 2.31 0 0zm0 92.84l-14.15 -14.15 1.62 -1.7 1.51 -1.76 1.41 -1.81 1.29 -1.87 1.2 -1.92 1.09 -1.96 0.98 -2 0.89 -2.04 0.78 -2.08 0.67 -2.1 0.58 -2.14 0.46 -2.15 0.37 -2.17 0.26 -2.19 0.15 -2.19 0.06 -2.2 -0.06 -2.2 -0.15 -2.19 -0.27 -2.19 -0.36 -2.17 -0.47 -2.15 -0.57 -2.13 -0.68 -2.11 -0.78 -2.07 -0.88 -2.04 -0.99 -2 -1.09 -1.96 -1.19 -1.92 -1.3 -1.86 -1.4 -1.82 -1.51 -1.75 -1.62 -1.7 14.15 -14.15 2.31 2.44 2.17 2.53 2.03 2.61 1.87 2.7 1.72 2.76 1.58 2.83 1.42 2.89 1.27 2.94 1.13 2.99 0.97 3.03 0.82 3.06 0.68 3.09 0.52 3.12 0.38 3.13 0.22 3.14 0.08 3.15 -0.08 3.14 -0.22 3.15 -0.37 3.13 -0.53 3.11 -0.67 3.09 -0.82 3.07 -0.97 3.03 -1.13 2.99 -1.27 2.94 -1.43 2.89 -1.57 2.83 -1.72 2.77 -1.88 2.7 -2.02 2.61 -2.17 2.54 -2.32 2.44zm-15.13 -0.99c-3.91,-3.91 -3.91,-10.24 0,-14.15 3.9,-3.9 10.23,-3.9 14.14,0l-14.14 14.15z"/>
  </g>
 </g>
</svg>
