<?xml version="1.0" encoding="UTF-8"?>
<!DOCTYPE svg PUBLIC "-//W3C//DTD SVG 1.1//EN" "http://www.w3.org/Graphics/SVG/1.1/DTD/svg11.dtd">
<!-- Creator: CorelDRAW 2020 (64-Bit) -->
<svg xmlns="http://www.w3.org/2000/svg" xml:space="preserve" width="160px" height="160px" version="1.1" style="shape-rendering:geometricPrecision; text-rendering:geometricPrecision; image-rendering:optimizeQuality; fill-rule:evenodd; clip-rule:evenodd"
viewBox="0 0 160 160"
 xmlns:xlink="http://www.w3.org/1999/xlink"
 xmlns:xodm="http://www.corel.com/coreldraw/odm/2003">
 <defs>
  <style type="text/css">
   <![CDATA[
    .fil1 {fill:#FEFEFE;fill-rule:nonzero}
    .fil0 {fill:#2F2F2F;fill-rule:nonzero}
   ]]>
  </style>
 </defs>
 <g id="Capa_x0020_1">
  <metadata id="CorelCorpID_0Corel-Layer"/>
  <path class="fil0" d="M160 80c0,44 -36,80 -80,80 -44,0 -80,-36 -80,-80 0,-44 36,-80 80,-80 44,0 80,36 80,80z"/>
  <path class="fil1" d="M125 52c-3,2 -6,2 -9,3 1,0 3,-3 4,-4 1,-2 2,-3 3,-5 0,-1 0,-1 0,-1 0,0 0,0 -1,0 -3,2 -6,3 -10,4 0,0 -1,0 -1,0 0,0 0,-1 -1,-1 -1,-1 -3,-2 -5,-3 -2,-1 -5,-1 -7,-1 -3,0 -6,1 -8,2 -2,1 -4,3 -6,5 -1,2 -3,4 -3,7 -1,2 -1,5 -1,7 1,1 0,1 0,1 -14,-2 -26,-8 -36,-19 0,0 0,0 -1,0 -4,7 -2,17 3,22 1,1 2,1 2,2 0,0 -3,0 -6,-2 -1,0 -1,0 -1,0 0,1 0,2 0,2 1,7 5,13 11,15 1,0 2,1 3,1 -2,0 -3,0 -7,0 -1,0 -1,0 -1,1 3,8 10,10 15,12 0,0 1,0 2,0 0,0 0,0 -1,0 -1,2 -7,4 -9,5 -5,2 -10,3 -15,2 -1,0 -1,0 -1,0 -1,0 0,0 0,1 1,0 2,1 3,1 3,2 6,3 10,4 18,5 38,2 51,-12 11,-10 14,-24 14,-39 0,0 1,-1 1,-1 3,-2 5,-5 7,-7 1,-1 1,-1 1,-2 0,0 0,0 0,0 0,0 0,0 0,0z"/>
 </g>
</svg>
