<?xml version="1.0" encoding="UTF-8"?>
<!DOCTYPE svg PUBLIC "-//W3C//DTD SVG 1.1//EN" "http://www.w3.org/Graphics/SVG/1.1/DTD/svg11.dtd">
<!-- Creator: CorelDRAW 2020 (64-Bit) -->
<svg xmlns="http://www.w3.org/2000/svg" xml:space="preserve" width="160px" height="160px" version="1.1" style="shape-rendering:geometricPrecision; text-rendering:geometricPrecision; image-rendering:optimizeQuality; fill-rule:evenodd; clip-rule:evenodd"
viewBox="0 0 160 160"
 xmlns:xlink="http://www.w3.org/1999/xlink"
 xmlns:xodm="http://www.corel.com/coreldraw/odm/2003">
 <defs>
  <style type="text/css">
   <![CDATA[
    .fil2 {fill:#FEFEFE}
    .fil0 {fill:#FEFEFE;fill-rule:nonzero}
    .fil1 {fill:#2F2F2F;fill-rule:nonzero}
   ]]>
  </style>
 </defs>
 <g id="Capa_x0020_1">
  <metadata id="CorelCorpID_0Corel-Layer"/>
  <path class="fil0" d="M125 52c-3,2 -6,2 -9,3 1,0 3,-3 4,-4 1,-2 2,-3 3,-5 0,-1 0,-1 0,-1 0,0 0,0 -1,0 -3,2 -6,3 -10,4 0,0 -1,0 -1,0 0,0 0,-1 -1,-1 -1,-1 -3,-2 -5,-3 -2,-1 -5,-1 -7,-1 -3,0 -6,1 -8,2 -2,1 -4,3 -6,5 -1,2 -3,4 -3,7 -1,2 -1,5 -1,7 1,1 0,1 0,1 -14,-2 -26,-8 -36,-19 0,0 0,0 -1,0 -4,7 -2,17 3,22 1,1 2,1 2,2 0,0 -3,0 -6,-2 -1,0 -1,0 -1,0 0,1 0,2 0,2 1,7 5,13 11,15 1,0 2,1 3,1 -2,0 -3,0 -7,0 -1,0 -1,0 -1,1 3,8 10,10 15,12 0,0 1,0 2,0 0,0 0,0 -1,0 -1,2 -7,4 -9,5 -5,2 -10,3 -15,2 -1,0 -1,0 -1,0 -1,0 0,0 0,1 1,0 2,1 3,1 3,2 6,3 10,4 18,5 38,2 51,-12 11,-10 14,-24 14,-39 0,0 1,-1 1,-1 3,-2 5,-5 7,-7 1,-1 1,-1 1,-2 0,0 0,0 0,0 0,0 0,0 0,0z"/>
  <path class="fil1" d="M160 80.02c0,44.18 -35.82,80 -80,80 -44.19,0 -80,-35.82 -80,-80 0,-44.18 35.81,-80 80,-80 44.18,0 80,35.82 80,80z"/>
  <path class="fil0" d="M63.03 109.26l1.58 0.95c5.78,3.44 12.36,5.26 19.02,5.26 20.55,0 37.27,-16.71 37.27,-37.26 0,-20.55 -16.72,-37.27 -37.27,-37.27 -20.54,0 -37.26,16.72 -37.26,37.27 0,6.78 1.88,13.46 5.45,19.32l0.96 1.59 -3.72 13.89 13.97 -3.75zm-26.26 16.04l6.67 -24.89c-3.77,-6.82 -5.76,-14.45 -5.76,-22.2 0,-25.34 20.61,-45.96 45.95,-45.96 25.34,0 45.95,20.62 45.95,45.96 0,25.33 -20.61,45.95 -45.95,45.95 -7.61,0 -15.12,-1.92 -21.84,-5.57l-25.02 6.71z"/>
  <path class="fil2" d="M100.73 84.6c-1.89,-1.13 -4.36,-2.4 -6.59,-1.48 -1.7,0.69 -2.8,3.37 -3.9,4.74 -0.57,0.7 -1.25,0.81 -2.12,0.46 -6.42,-2.56 -11.33,-6.84 -14.88,-12.75 -0.6,-0.91 -0.49,-1.64 0.24,-2.49 1.06,-1.26 2.41,-2.69 2.7,-4.38 0.28,-1.7 -0.51,-3.68 -1.21,-5.2 -0.9,-1.93 -1.9,-4.68 -3.84,-5.77 -1.78,-1.01 -4.12,-0.44 -5.7,0.84 -2.73,2.23 -4.05,5.72 -4.01,9.18 0,0.98 0.13,1.96 0.36,2.91 0.55,2.28 1.6,4.41 2.79,6.44 0.89,1.52 1.87,3.01 2.91,4.43 3.44,4.66 7.71,8.72 12.65,11.74 2.47,1.52 5.13,2.84 7.89,3.75 3.09,1.03 5.84,2.09 9.18,1.45 3.49,-0.66 6.94,-2.82 8.32,-6.19 0.41,-1 0.62,-2.11 0.39,-3.16 -0.47,-2.17 -3.42,-3.47 -5.18,-4.52z"/>
 </g>
</svg>
